<?xml version="1.0" encoding="UTF-8" standalone="no"?>
<!-- Created with Inkscape (http://www.inkscape.org/) -->

<svg
   width="512"
   height="512"
   viewBox="0 0 135.46667 135.46666"
   version="1.1"
   id="svg1"
   inkscape:version="1.4 (e7c3feb1, 2024-10-09)"
   sodipodi:docname="icon.svg"
   xml:space="preserve"
   xmlns:inkscape="http://www.inkscape.org/namespaces/inkscape"
   xmlns:sodipodi="http://sodipodi.sourceforge.net/DTD/sodipodi-0.dtd"
   xmlns="http://www.w3.org/2000/svg"
   xmlns:svg="http://www.w3.org/2000/svg"><sodipodi:namedview
     id="namedview1"
     pagecolor="#ffffff"
     bordercolor="#000000"
     borderopacity="0.25"
     inkscape:showpageshadow="2"
     inkscape:pageopacity="0.0"
     inkscape:pagecheckerboard="0"
     inkscape:deskcolor="#d1d1d1"
     inkscape:document-units="px"
     inkscape:zoom="0.5"
     inkscape:cx="53"
     inkscape:cy="423"
     inkscape:window-width="1440"
     inkscape:window-height="872"
     inkscape:window-x="0"
     inkscape:window-y="28"
     inkscape:window-maximized="0"
     inkscape:current-layer="layer1"
     showguides="true"><inkscape:page
       x="0"
       y="0"
       width="135.46667"
       height="135.46666"
       id="page1"
       margin="16.933332"
       bleed="0" /><sodipodi:guide
       position="67.733332,68.443636"
       orientation="-1,0"
       id="guide1"
       inkscape:locked="false"
       inkscape:label=""
       inkscape:color="rgb(0,134,229)" /><sodipodi:guide
       position="0,67.733332"
       orientation="0,1"
       id="guide2"
       inkscape:locked="false"
       inkscape:label=""
       inkscape:color="rgb(0,134,229)" /></sodipodi:namedview><defs
     id="defs1" /><g
     inkscape:label="Layer1"
     inkscape:groupmode="layer"
     id="layer1"><rect
       style="fill:#2962ff;fill-opacity:1;fill-rule:evenodd;stroke-width:0.582239;stroke-linecap:round;paint-order:markers fill stroke"
       id="background"
       width="135.46666"
       height="135.46666"
       x="6.2856958e-07"
       y="-1.9900181e-06"
       inkscape:export-filename="papima1.png"
       inkscape:export-xdpi="96"
       inkscape:export-ydpi="96" /><path
       id="path1"
       style="fill:#ffffff;fill-rule:evenodd;stroke:none;stroke-width:1.02318;stroke-linecap:round;paint-order:markers fill stroke"
       d="m 56.41102,99.597781 c 8.238954,2.228839 14.213864,2.228839 22.718123,-0.73493 v 17.374919 c -3.180435,1.43232 -7.311284,2.20997 -11.396493,2.25807 -4.210319,0.0496 -8.37216,-0.6758 -11.395123,-2.25807 z"
       sodipodi:nodetypes="cccscc" /><path
       id="path2"
       style="fill:#ffffff;fill-opacity:1;stroke:#ffffff;stroke-width:1.02158px;stroke-linecap:round;stroke-linejoin:round;stroke-opacity:1"
       d="m 118.53334,67.733333 c 0,0 -13.414,34.838547 -50.800008,34.405037 -37.386004,-0.43352 -50.8,-34.405037 -50.8,-34.405037 0,0 15.717188,31.694607 50.8,31.694607 35.082818,0 50.800008,-31.694607 50.800008,-31.694607 z"
       sodipodi:nodetypes="csccc" /><path
       id="path3"
       style="fill:#ffffff;fill-rule:evenodd;stroke:#ffffff;stroke-width:1.30759;stroke-linecap:round;paint-order:markers fill stroke"
       d="m 65.65714,85.592118 h 4.152384 v 7.341899 c -1.109199,0.549858 -2.256477,1.023558 -4.152384,0 z"
       sodipodi:nodetypes="ccccc" /><path
       style="fill:#ffffff;fill-opacity:1;stroke:#ffffff;stroke-width:1.07164px;stroke-linecap:round;stroke-linejoin:round;stroke-opacity:1"
       d="m 67.733332,88.932322 c -15.807591,0 -11.189519,-15.270326 -6.520801,-27.816213 4.668718,-12.545887 6.520801,-28.401284 6.520801,-44.182776 0,15.703925 1.870885,31.710367 6.880367,44.182776 5.009481,12.472409 8.927224,27.816213 -6.880367,27.816213 z"
       id="path4"
       sodipodi:nodetypes="zzczz" /></g></svg>
